PathFileType	4	(X/Y/Z)	C:/Users/opensim2020/Desktop/walking_exp_matlab/subject01_walking14_straight_04.trc	
DataRate	CameraRate	NumFrames	NumMarkers	Units	OrigDataRate	OrigDataStartFrame	OrigNumFrames	
100.00	100.00	6	42	mm	100.00	2085	89	
Frame#	Time	LFHD			RFHD			LBHD			RBHD			C7			T10			CLAV			STRN			RBAK			LSHO			LUPA			LELB			LFRM			LWRA			LWRB			LFIN			RSHO			RUPA			RELB			RFRM			RWRA			RWRB			RFIN			LASI			RASI			LPSI			RPSI			LTHI			LKNE			LTIB			LANK			LHEE			LTOE			RTHI			RKNE			RTIB			RANK			RHEE			RTOE			*39			*40			*41			
		X1	Y1	Z1	X2	Y2	Z2	X3	Y3	Z3	X4	Y4	Z4	X5	Y5	Z5	X6	Y6	Z6	X7	Y7	Z7	X8	Y8	Z8	X9	Y9	Z9	X10	Y10	Z10	X11	Y11	Z11	X12	Y12	Z12	X13	Y13	Z13	X14	Y14	Z14	X15	Y15	Z15	X16	Y16	Z16	X17	Y17	Z17	X18	Y18	Z18	X19	Y19	Z19	X20	Y20	Z20	X21	Y21	Z21	X22	Y22	Z22	X23	Y23	Z23	X24	Y24	Z24	X25	Y25	Z25	X26	Y26	Z26	X27	Y27	Z27	X28	Y28	Z28	X29	Y29	Z29	X30	Y30	Z30	X31	Y31	Z31	X32	Y32	Z32	X33	Y33	Z33	X34	Y34	Z34	X35	Y35	Z35	X36	Y36	Z36	X37	Y37	Z37	X38	Y38	Z38	X39	Y39	Z39	X40	Y40	Z40	X41	Y41	Z41	X42	Y42	Z42	

12	0.110	-1019.89453	502.59067	1644.62402	-1126.80505	460.40244	1650.58325	-1059.80725	615.83740	1613.83008	-1173.62268	575.37506	1619.83545	-1079.75732	661.79340	1418.45239	-1089.92505	709.73816	1125.06042	-1103.64758	519.64917	1345.76099	-1107.29480	484.62024	1189.68750	-1146.83044	732.79938	1228.13550	-938.25183	555.02716	1383.37634	-841.68768	558.01593	1207.50330	-822.94214	548.17883	1055.07275	-833.20294	440.58658	1002.82751	-889.39459	316.52960	989.75317	-861.97931	338.91687	942.42694	-869.67096	255.70958	940.09283	-1239.07031	608.06635	1390.29480	-1322.48486	724.40210	1211.31360	-1337.02136	741.63495	1092.06677	-1377.95032	765.26355	980.89703	-1380.84265	737.86438	839.69574	-1409.88123	782.83667	862.33228	-1422.96936	780.05817	775.79956	-992.22510	535.18481	918.23022	-1209.83472	534.01062	923.87506	-1052.96350	720.09534	930.76959	-1197.18237	717.74548	929.26080	-945.84937	637.03857	589.02386	-962.29431	687.16467	460.10352	-953.22150	817.03027	318.15463	-1003.72302	949.76825	139.92157	-1051.60095	1004.79858	142.97760	-1025.62598	844.40796	38.16572	-1278.37183	503.32751	601.86633	-1257.72156	445.63931	456.63104	-1265.80994	454.14105	280.25961	-1231.36890	408.98654	76.83546	-1179.12061	445.58054	32.67660	-1240.43872	264.79498	60.69860	-1105.60620	473.57898	1684.68945	-3102.00781	1973.09290	1023.64673	-3140.61353	2012.54810	1022.06335 
13	0.120	-1023.56744	490.20526	1645.29431	-1130.11206	447.50906	1651.13232	-1064.03113	603.29272	1614.06934	-1177.65503	562.09393	1619.89661	-1084.18677	649.38007	1418.27820	-1093.00659	695.43170	1124.79871	-1107.02368	506.52289	1345.93713	-1109.98669	470.65851	1190.33301	-1150.68640	718.79327	1226.87830	-941.85339	542.84186	1383.84985	-844.48022	546.79846	1208.32751	-824.82849	537.42218	1055.91943	-834.42188	430.20523	1002.64746	-890.32709	306.16080	988.02307	-862.23181	329.05344	941.01288	-870.15686	245.71860	938.01801	-1243.33252	594.47076	1389.72900	-1326.74097	708.71283	1209.27368	-1340.64026	725.17224	1090.03003	-1381.46423	748.65851	978.97253	-1384.27197	721.40369	837.70807	-1413.52478	766.26990	860.47662	-1426.61438	763.58112	774.15619	-994.56915	520.13226	917.56732	-1212.09778	518.77893	923.98352	-1054.83240	705.33685	929.65173	-1199.74500	702.52869	928.08691	-946.96686	620.63525	587.89722	-962.61975	671.06665	458.98068	-953.05853	804.71906	320.95508	-1001.89105	942.29041	146.18069	-1050.07129	996.12311	152.17407	-1025.51208	843.41595	38.25617	-1280.83997	489.26614	602.27832	-1258.43164	430.72525	456.67715	-1265.78345	441.87854	282.11002	-1232.13098	404.09512	76.85016	-1179.90515	443.31036	34.33310	-1240.27686	261.10040	55.32378	-1109.36060	461.05530	1685.03027	-3101.97681	1973.12207	1023.57288	-3140.74219	2012.55945	1022.12677 
14	0.130	-1027.38916	477.55865	1646.61548	-1133.28992	434.41974	1652.26794	-1068.34082	590.22192	1615.02576	-1181.78711	548.54169	1620.91846	-1088.87927	636.38293	1418.96790	-1095.72815	681.05298	1125.28284	-1110.14819	492.52200	1347.51050	-1112.74719	456.92590	1191.44385	-1154.56995	704.86322	1226.71484	-945.19183	530.73969	1384.87195	-847.36963	535.95740	1209.56226	-827.10187	526.87878	1057.08618	-835.69366	420.39001	1002.34650	-891.05151	296.34717	985.67480	-862.42786	319.87381	939.27264	-870.21887	236.52043	935.20056	-1247.05664	580.82458	1389.29517	-1331.20154	692.63922	1207.48010	-1344.29285	708.22260	1088.11816	-1384.93030	731.38477	977.00653	-1387.50818	703.96234	835.79480	-1416.62537	748.66858	858.41010	-1430.21265	746.04858	772.71497	-997.06177	505.29755	917.41003	-1214.41284	503.47998	924.46948	-1056.31653	690.69666	928.80176	-1201.91077	687.32294	927.71997	-948.22223	603.85669	587.28247	-962.79285	653.76331	458.25217	-952.57178	791.32562	324.52557	-1000.41888	932.75342	152.86868	-1048.48914	985.26062	162.01590	-1025.46057	842.30396	38.30333	-1283.97363	477.51938	602.52197	-1259.01733	415.27444	458.79724	-1269.35974	428.30820	284.54514	-1233.10791	401.14984	77.03177	-1180.68115	442.14944	35.47617	-1239.94019	258.91074	49.66448	-1113.16821	448.33521	1686.15759	-3102.14111	1972.96228	1024.09753	-3140.73706	2012.47363	1022.11047 
15	0.140	-1031.09119	464.70486	1647.90320	-1136.71143	420.89618	1653.44946	-1072.67175	577.09021	1616.56921	-1185.68848	534.70508	1622.18701	-1093.26819	622.65588	1420.29492	-1098.36609	666.80371	1125.95007	-1113.48230	478.97964	1349.14307	-1115.47485	443.18436	1192.88757	-1158.60510	691.17535	1227.46008	-948.54901	518.48792	1386.26147	-850.52374	524.65619	1211.22729	-829.59503	516.65393	1058.55713	-837.02130	411.04532	1001.94922	-891.64374	287.19608	982.82471	-862.63831	311.51089	937.12628	-870.15289	228.40875	931.55255	-1250.81750	567.25073	1389.34644	-1335.67627	676.22430	1206.07971	-1347.65063	690.83490	1086.43396	-1388.24792	713.44177	975.29681	-1390.57617	685.42688	834.16431	-1420.04724	730.20233	856.72552	-1433.66345	727.29871	771.25751	-999.47119	490.93106	917.61151	-1216.45557	488.25778	925.37744	-1057.42053	676.11316	928.33032	-1203.60632	672.48944	928.42023	-949.34857	586.58124	587.19641	-962.50708	634.82654	457.85800	-952.06708	775.91974	328.60410	-998.92200	921.54956	160.16144	-1047.48706	972.05872	172.20099	-1025.71240	840.64679	38.41427	-1285.05371	466.44046	602.58002	-1259.64673	401.04617	460.42889	-1272.15918	416.27548	286.18311	-1233.59937	398.98795	77.35330	-1181.59839	441.21854	36.20853	-1239.46387	257.35919	45.10419	-1116.57214	435.20810	1687.67615	-3101.96826	1973.10559	1023.39404	-3140.65210	2012.54297	1021.95947 
16	0.150	-1034.68347	451.74429	1649.16382	-1140.20801	407.38635	1654.57190	-1076.95227	564.12213	1618.25500	-1190.10168	521.10028	1623.66504	-1097.28625	608.80383	1421.76013	-1100.96875	652.78717	1126.73401	-1117.15063	466.46661	1350.33801	-1118.31262	429.14178	1194.54114	-1162.57727	677.53870	1228.51550	-952.03156	506.06833	1387.95398	-853.65344	514.31714	1213.25488	-831.95984	507.24811	1060.63013	-838.44647	402.52274	1001.70184	-892.06995	278.63416	979.50049	-862.89282	304.12561	934.68701	-869.64117	221.31888	927.14856	-1254.51196	553.73340	1389.83191	-1339.96753	659.76355	1205.08630	-1351.07141	673.49945	1085.39136	-1391.35718	694.89471	973.99597	-1393.59766	666.05609	833.01355	-1423.29700	710.42828	855.31232	-1436.99109	707.26282	770.07904	-1002.64038	475.76266	918.45837	-1218.19910	473.39227	926.90540	-1058.40259	661.56390	928.46954	-1204.73486	658.01477	930.01379	-950.08789	568.61975	587.35156	-961.90833	614.30750	457.46432	-951.39734	758.37756	332.68097	-997.28235	908.17194	167.28848	-1047.01807	956.30371	182.41867	-1025.70190	839.26263	38.60115	-1286.24695	453.41626	603.56714	-1260.85583	388.61179	460.97507	-1273.95142	406.94769	285.68213	-1233.64832	396.69559	77.20959	-1181.93616	440.15787	36.85002	-1239.21277	255.53223	42.78930	-1119.78833	421.63608	1688.88245	-3101.92969	1973.11792	1023.50092	-3140.73267	2012.52795	1022.02228 
17	0.160	-1038.26868	438.93274	1650.44458	-1143.76501	393.95563	1655.71411	-1081.13660	550.87335	1619.37927	-1193.90955	507.40485	1624.71082	-1100.94080	595.24146	1423.04407	-1103.37500	638.98895	1127.72510	-1120.33325	452.92850	1351.91272	-1120.92358	415.04459	1196.25818	-1166.18384	663.85693	1229.55334	-955.57214	493.55777	1389.88416	-856.77435	503.81882	1215.42065	-834.71588	498.13599	1062.96704	-839.91333	394.53024	1001.52203	-892.25842	270.87109	975.82306	-862.98602	297.70569	931.89893	-869.14203	215.16176	921.73810	-1257.75037	540.08929	1390.33838	-1343.89539	643.35498	1204.48425	-1354.18433	656.07764	1084.61792	-1394.39014	675.82550	973.04108	-1396.00977	645.64612	832.31451	-1426.24146	689.90186	854.38220	-1440.04211	685.93225	768.86737	-1004.76978	462.39246	918.99908	-1219.92566	459.00266	928.67651	-1059.47034	647.13702	929.32764	-1205.91284	643.97858	932.50989	-950.70599	550.03210	587.20972	-961.38434	592.45087	456.84329	-950.66058	739.05560	336.33759	-995.97803	891.92676	173.58656	-1046.29126	938.40936	192.03949	-1026.63428	836.65631	38.92537	-1287.41150	439.25748	605.06506	-1262.30200	378.02475	460.29092	-1275.90503	400.19250	284.41846	-1233.53113	395.00702	76.89645	-1182.25647	439.57736	37.31453	-1238.17493	254.26587	41.00645	-1123.43701	407.59079	1690.33789	-3101.96289	1973.20007	1023.58704	-3140.65576	2012.51953	1022.02350 
